<?xml version="1.0" encoding="UTF-8"?>
<svg viewBox="0 0 169.99999999999997 129.63016046177023">
    <g transform="matrix(0.592223684447143,0,0,0.592223684447143,28.930961064925466,-5.079044863998473)" fill="#dbf450">
        <g xmlns="http://www.w3.org/2000/svg">
            <path fill="none" d="M80.477,101.951c-6.205-2.335-8.761-3.868-8.761-6.277c0-2.046,1.534-4.089,6.278-4.089   c5.256,0,8.613,1.679,10.512,2.482l2.118-8.249c-2.409-1.168-5.696-2.189-10.587-2.409v-6.424h-7.152v6.935   c-7.813,1.533-12.337,6.569-12.337,12.994c0,7.08,5.327,10.731,13.138,13.359c5.403,1.825,7.739,3.579,7.739,6.351   c0,2.922-2.849,4.526-7.009,4.526c-4.744,0-9.051-1.532-12.119-3.21l-2.189,8.539c2.774,1.605,7.519,2.922,12.409,3.139v6.938   h7.155v-7.447c8.396-1.459,12.994-7.008,12.994-13.505C92.667,109.033,89.164,105.018,80.477,101.951z"></path>
            <path fill="#dbf450" d="M56.662,43.417h37.836h4.35c5.326-7.268,19.557-27.641,14.227-30.871   c-6.508-3.945-14.518,10.281-20.235,10.061S82.608,8.35,76.081,8.579c-6.53,0.229-9.113,13.004-14.351,14.201   c-5.239,1.197-18.298-15.075-23.537-9.36c-4.244,4.631,8.742,23.137,13.825,29.998H56.662z"></path>
            <path fill="#dbf450" d="M177.443,82.352c1.053-1.193,1.66-2.557,1.66-4.089c0-6.506-10.848-10.017-21.055-10.017   s-21.055,3.511-21.055,10.017c0,1.532,0.607,2.896,1.661,4.089c-1.054,1.193-1.661,2.558-1.661,4.089   c0,1.651,0.701,3.108,1.91,4.364c-0.41,0.427-0.758,0.877-1.043,1.35c-2.063-1.702-5.123-2.971-8.599-3.787   c-8.276-14.568-19.958-28.848-30.21-40.062H51.62c-23.249,23.056-52.163,59.292-37.304,85.727   c11.742,20.892,38.288,26.294,64.044,25.935c9.213-0.129,18.319-1.001,26.614-2.951c4.016,1.758,9.383,2.672,14.586,2.672   c1.569,0,3.153-0.084,4.711-0.248c3.197,4.131,11.658,6.324,19.723,6.324c9.512,0,19.576-3.05,20.903-8.73   c7.687-1.203,14.206-4.445,14.206-9.489c0-1.651-0.701-3.108-1.91-4.364c1.209-1.257,1.91-2.714,1.91-4.365   c0-1.65-0.701-3.107-1.91-4.363c1.209-1.258,1.91-2.715,1.91-4.365s-0.701-3.107-1.91-4.365c1.209-1.256,1.91-2.713,1.91-4.363   c0-1.651-0.701-3.108-1.91-4.365c1.209-1.256,1.91-2.713,1.91-4.364s-0.701-3.108-1.91-4.364c1.209-1.257,1.91-2.714,1.91-4.365   c0-1.65-0.701-3.107-1.91-4.363c1.209-1.258,1.91-2.715,1.91-4.365s-0.701-3.107-1.91-4.365c1.209-1.256,1.91-2.713,1.91-4.364   C179.103,84.91,178.496,83.545,177.443,82.352z M123.069,129.357c-1.116,0.091-2.284,0.144-3.509,0.144   c-10.41,0-17.055-3.563-17.055-6.017c0-0.616,0.42-1.302,1.211-1.983c4.104,2.149,10.076,3.271,15.844,3.271   c1.569,0,3.153-0.084,4.711-0.248c0.316,0.41,0.685,0.801,1.1,1.172C124.181,126.76,123.368,127.981,123.069,129.357z    M124.403,134.424c-0.891,1.086-1.407,2.313-1.453,3.67c-1.081,0.084-2.207,0.136-3.39,0.136c-10.41,0-17.055-3.563-17.055-6.017   c0-0.616,0.42-1.302,1.211-1.984c4.104,2.15,10.076,3.271,15.844,3.271c1.362,0,2.734-0.064,4.092-0.188   C123.861,133.698,124.111,134.069,124.403,134.424z M103.716,138.958c4.104,2.149,10.076,3.271,15.844,3.271   c1.569,0,3.153-0.083,4.711-0.247c0.178,0.229,0.369,0.453,0.578,0.67c-1.16,1.207-1.846,2.6-1.899,4.17   c-1.081,0.085-2.207,0.137-3.39,0.137c-10.41,0-17.055-3.564-17.055-6.018C102.505,140.327,102.925,139.641,103.716,138.958z    M122.95,120.635c-1.081,0.086-2.207,0.137-3.39,0.137c-10.41,0-17.055-3.563-17.055-6.018c0-0.615,0.42-1.301,1.211-1.982   c4.104,2.148,10.076,3.271,15.844,3.271c2.084,0,4.192-0.149,6.23-0.438C124.067,116.996,123.016,118.678,122.95,120.635z    M119.56,112.043c-10.41,0-17.055-3.564-17.055-6.018c0-0.615,0.42-1.301,1.211-1.983c4.104,2.149,10.076,3.271,15.844,3.271   c5.769,0,11.74-1.122,15.844-3.271c0.792,0.683,1.211,1.368,1.211,1.983C136.615,108.479,129.971,112.043,119.56,112.043z    M136.615,97.297c0,2.453-6.644,6.017-17.055,6.017c-10.41,0-17.055-3.563-17.055-6.017c0-2.454,6.645-6.018,17.055-6.018   C129.971,91.28,136.615,94.843,136.615,97.297z M79.673,129.108v7.447h-7.155v-6.938c-4.89-0.217-9.635-1.533-12.409-3.139   l2.189-8.539c3.067,1.678,7.375,3.21,12.119,3.21c4.16,0,7.009-1.604,7.009-4.526c0-2.771-2.336-4.525-7.739-6.351   c-7.811-2.628-13.138-6.279-13.138-13.359c0-6.425,4.525-11.461,12.337-12.994v-6.935h7.152v6.424   c4.891,0.22,8.178,1.241,10.587,2.409l-2.118,8.249c-1.898-0.804-5.256-2.482-10.512-2.482c-4.744,0-6.278,2.043-6.278,4.089   c0,2.409,2.556,3.942,8.761,6.277c8.687,3.067,12.19,7.082,12.19,13.652C92.667,122.1,88.069,127.649,79.673,129.108z    M122.95,155.551c-1.081,0.086-2.207,0.137-3.39,0.137c-10.41,0-17.055-3.563-17.055-6.018c0-0.615,0.42-1.301,1.211-1.982   c4.104,2.148,10.076,3.271,15.844,3.271c1.569,0,3.153-0.084,4.711-0.248c0.178,0.229,0.369,0.453,0.578,0.672   C123.689,152.588,123.003,153.982,122.95,155.551z M143.994,161.764c-10.41,0-17.055-3.563-17.055-6.018   c0-0.615,0.42-1.301,1.211-1.982c4.104,2.148,10.076,3.271,15.844,3.271c5.769,0,11.74-1.123,15.844-3.271   c0.792,0.682,1.211,1.367,1.211,1.982C161.048,158.201,154.405,161.764,143.994,161.764z M143.994,153.036   c-10.41,0-17.055-3.564-17.055-6.018c0-0.615,0.42-1.301,1.211-1.983c4.104,2.149,10.076,3.271,15.844,3.271   c5.769,0,11.74-1.122,15.844-3.271c0.792,0.683,1.211,1.368,1.211,1.983C161.048,149.471,154.405,153.036,143.994,153.036z    M143.994,144.306c-10.41,0-17.055-3.563-17.055-6.017c0-0.419,0.208-0.871,0.58-1.33c4.107,2.375,10.404,3.617,16.475,3.617   c6.071,0,12.369-1.242,16.476-3.617c0.372,0.459,0.579,0.911,0.579,1.33C161.048,140.743,154.405,144.306,143.994,144.306z    M143.994,136.577c-10.41,0-17.055-3.563-17.055-6.017c0-0.798,0.714-1.712,2.02-2.584c4.058,1.889,9.636,2.872,15.035,2.872   c5.4,0,10.979-0.983,15.035-2.872c1.307,0.872,2.02,1.786,2.02,2.584C161.048,133.014,154.405,136.577,143.994,136.577z    M143.994,126.848c-10.41,0-17.055-3.563-17.055-6.018c0-2.453,6.645-6.017,17.055-6.017c10.411,0,17.055,3.563,17.055,6.017   C161.048,123.285,154.405,126.848,143.994,126.848z M164.378,153.079c-0.314-0.6-0.73-1.166-1.239-1.695   c0.884-0.92,1.493-1.947,1.758-3.078c3.374-0.529,6.524-1.449,8.995-2.744c0.791,0.682,1.211,1.367,1.211,1.983   C175.103,149.454,171.068,152.028,164.378,153.079z M164.378,144.35c-0.314-0.601-0.73-1.167-1.239-1.697   c0.884-0.918,1.493-1.945,1.758-3.077c3.374-0.528,6.524-1.448,8.995-2.743c0.791,0.682,1.211,1.367,1.211,1.982   C175.103,140.725,171.068,143.298,164.378,144.35z M164.378,135.622c-0.217-0.416-0.48-0.815-0.793-1.197   c0.875-1.068,1.389-2.271,1.449-3.6c3.322-0.532,6.42-1.445,8.857-2.722c0.791,0.683,1.211,1.368,1.211,1.983   C175.103,131.996,171.068,134.569,164.378,135.622z M163.802,126.981c-0.336-0.451-0.731-0.88-1.185-1.285   c1.165-1.043,1.966-2.236,2.279-3.578c3.374-0.528,6.524-1.449,8.995-2.744c0.791,0.683,1.211,1.368,1.211,1.984   C175.103,123.321,170.839,125.991,163.802,126.981z M164.378,118.163c-0.897-1.715-2.647-3.143-4.926-4.271   c5.318-0.167,10.668-1.271,14.439-3.247c0.791,0.682,1.211,1.367,1.211,1.983C175.103,114.538,171.068,117.112,164.378,118.163z    M158.048,109.917c-10.41,0-17.055-3.563-17.055-6.018c0-0.615,0.42-1.301,1.211-1.982c4.104,2.148,10.076,3.271,15.844,3.271   c5.769,0,11.74-1.123,15.844-3.271c0.791,0.682,1.211,1.367,1.211,1.982C175.103,106.353,168.459,109.917,158.048,109.917z    M158.048,101.188c-10.41,0-17.055-3.564-17.055-6.018c0-0.615,0.42-1.301,1.211-1.983c4.104,2.149,10.076,3.271,15.844,3.271   c5.769,0,11.74-1.122,15.844-3.271c0.791,0.683,1.211,1.368,1.211,1.983C175.103,97.624,168.459,101.188,158.048,101.188z    M158.048,92.458c-10.41,0-17.055-3.563-17.055-6.018c0-0.51,0.303-1.066,0.85-1.631c4.109,2.277,10.264,3.47,16.205,3.47   s12.096-1.192,16.205-3.47c0.549,0.564,0.85,1.121,0.85,1.631C175.103,88.895,168.459,92.458,158.048,92.458z M158.048,84.28   c-10.41,0-17.055-3.563-17.055-6.017s6.645-6.017,17.055-6.017c10.411,0,17.055,3.563,17.055,6.017S168.459,84.28,158.048,84.28z"></path>
        </g>
    </g>
    <g transform="matrix(1.1081848732056594,0,0,1.1081848732056594,-1.7952601604070626,107.46646352608076)" fill="#ffffff">
        <path d="M12.18 12.18 q1.04 0.64 1.52 1.84 q0.28 0.64 0.28 1.58 q0 1.46 -0.78 2.45 t-2.28 1.47 q-0.94 0.32 -2.22 0.32 l-6.38 0 q-0.28 0 -0.49 -0.21 t-0.21 -0.49 l0 -1.44 q0 -0.3 0.21 -0.51 t0.49 -0.21 l6.54 0 q1.16 0 1.72 -0.42 q0.48 -0.4 0.48 -1.09 t-0.5 -1.13 q-0.62 -0.54 -1.86 -0.54 l-6.38 0 q-0.28 0 -0.49 -0.21 t-0.21 -0.51 l0 -1.38 q0 -0.28 0.21 -0.49 t0.49 -0.21 l6.02 0 q0.86 0 1.34 -0.3 q0.34 -0.2 0.54 -0.58 q0.14 -0.28 0.14 -0.65 t-0.1 -0.67 q-0.08 -0.24 -0.28 -0.44 q-0.44 -0.5 -1.46 -0.5 l-6.2 0 q-0.28 0 -0.49 -0.21 t-0.21 -0.51 l0 -1.44 q0 -0.28 0.21 -0.49 t0.49 -0.21 l6.02 0 q2.48 0 3.82 1.4 q1.14 1.14 1.14 2.86 q0 1.84 -1.12 2.92 z M30.436 5 q0.28 0 0.49 0.21 t0.21 0.49 l0 13.4 q0 0.28 -0.21 0.49 t-0.49 0.21 l-1.76 0 q-0.36 0 -0.58 -0.28 l-9.78 -13.4 q-0.12 -0.16 -0.14 -0.36 t0.07 -0.38 t0.26 -0.28 t0.37 -0.1 l1.76 0 q0.16 0 0.32 0.07 t0.24 0.21 l7.02 9.54 l0 -9.12 q0 -0.28 0.2 -0.49 t0.5 -0.21 l1.52 0 z M20.396 14.7 q0.28 0 0.49 0.2 t0.21 0.5 l0 3.7 q0 0.28 -0.21 0.49 t-0.49 0.21 l-1.52 0 q-0.28 0 -0.49 -0.21 t-0.21 -0.49 l0 -3.7 q0 -0.3 0.21 -0.5 t0.49 -0.2 l1.52 0 z M46.692 12.18 q1.04 0.64 1.52 1.84 q0.28 0.64 0.28 1.58 q0 1.46 -0.78 2.45 t-2.28 1.47 q-0.94 0.32 -2.22 0.32 l-6.38 0 q-0.28 0 -0.49 -0.21 t-0.21 -0.49 l0 -1.44 q0 -0.3 0.21 -0.51 t0.49 -0.21 l6.54 0 q1.16 0 1.72 -0.42 q0.48 -0.4 0.48 -1.09 t-0.5 -1.13 q-0.62 -0.54 -1.86 -0.54 l-6.38 0 q-0.28 0 -0.49 -0.21 t-0.21 -0.51 l0 -1.38 q0 -0.28 0.21 -0.49 t0.49 -0.21 l6.02 0 q0.86 0 1.34 -0.3 q0.34 -0.2 0.54 -0.58 q0.14 -0.28 0.14 -0.65 t-0.1 -0.67 q-0.08 -0.24 -0.28 -0.44 q-0.44 -0.5 -1.46 -0.5 l-6.2 0 q-0.28 0 -0.49 -0.21 t-0.21 -0.51 l0 -1.44 q0 -0.28 0.21 -0.49 t0.49 -0.21 l6.02 0 q2.48 0 3.82 1.4 q1.14 1.14 1.14 2.86 q0 1.84 -1.12 2.92 z M65.848 18.86 q0.14 0.32 -0.07 0.65 t-0.57 0.33 l-13.32 0 q-0.18 0 -0.34 -0.09 t-0.24 -0.23 q-0.22 -0.32 -0.06 -0.66 l0.62 -1.46 q0.08 -0.2 0.26 -0.32 t0.38 -0.12 l9.32 0 l-3.28 -7.84 l-2.68 6.4 q-0.08 0.2 -0.25 0.31 t-0.39 0.11 l-1.68 0 q-0.38 0 -0.6 -0.32 q-0.08 -0.14 -0.1 -0.32 t0.04 -0.34 l4.06 -9.52 q0.08 -0.2 0.25 -0.32 t0.39 -0.12 l1.92 0 q0.22 0 0.39 0.12 t0.25 0.32 z M71.604 10.94 q0.3 0 0.5 0.21 t0.2 0.51 l0 7.48 q0 0.28 -0.2 0.49 t-0.5 0.21 l-1.52 0 q-0.28 0 -0.49 -0.21 t-0.21 -0.49 l0 -7.48 q0 -0.3 0.21 -0.51 t0.49 -0.21 l1.52 0 z M71.604 5 q0.3 0 0.5 0.21 t0.2 0.49 l0 3.7 q0 0.3 -0.2 0.51 t-0.5 0.21 l-1.52 0 q-0.28 0 -0.49 -0.21 t-0.21 -0.51 l0 -3.7 q0 -0.28 0.21 -0.49 t0.49 -0.21 l1.52 0 z M86.77999999999999 14.1 l3.02 4.62 q0.22 0.36 0.02 0.72 q-0.08 0.16 -0.25 0.26 t-0.35 0.1 l-1.82 0 q-0.18 0 -0.34 -0.09 t-0.24 -0.23 l-3.04 -4.82 l-3.56 0 l0 4.44 q0 0.28 -0.21 0.49 t-0.49 0.21 l-1.52 0 q-0.28 0 -0.49 -0.21 t-0.21 -0.49 l0 -6.58 q0 -0.28 0.21 -0.49 t0.49 -0.21 l6.16 0 q1.76 0 2.34 -1 q0.2 -0.32 0.2 -0.92 q0 -0.94 -0.62 -1.48 q-0.64 -0.58 -1.84 -0.58 l-6.24 0 q-0.28 0 -0.49 -0.21 t-0.21 -0.49 l0 -1.44 q0 -0.28 0.21 -0.49 t0.49 -0.21 l6.42 0 q2.34 0 3.74 1.32 q1.46 1.32 1.46 3.58 q0 1.46 -0.64 2.49 t-1.86 1.57 z M101.356 7.859999999999999 q-0.26 -0.04 -0.43 -0.24 t-0.17 -0.46 l0 -1.46 q0 -0.34 0.24 -0.54 t0.56 -0.16 q1.72 0.28 3.06 1.22 q1.74 1.26 2.46 3.34 q0.12 0.34 -0.08 0.64 t-0.58 0.3 l-1.6 0 q-0.22 0 -0.4 -0.11 t-0.26 -0.31 q-0.44 -1.04 -1.34 -1.66 q-0.7 -0.44 -1.46 -0.56 z M106.416 14.5 q0.38 0 0.58 0.3 t0.08 0.64 q-0.72 2.08 -2.46 3.34 q-1.34 0.94 -3.06 1.22 l-0.1 0 q-0.28 0 -0.46 -0.18 q-0.24 -0.18 -0.24 -0.52 l0 -1.46 q0 -0.26 0.16 -0.46 t0.42 -0.24 q0.84 -0.12 1.48 -0.56 q0.9 -0.62 1.34 -1.66 q0.08 -0.2 0.26 -0.31 t0.4 -0.11 l1.6 0 z M99.256 5.24 q0.26 0.2 0.26 0.54 l0 1.56 q0 0.22 -0.15 0.41 t-0.37 0.27 q-0.28 0.06 -0.44 0.14 q-0.8 0.36 -1.36 0.98 q-1.14 1.28 -1.14 3.35 t1.14 3.37 q0.7 0.8 1.8 1.12 q0.22 0.06 0.37 0.25 t0.15 0.41 l0 1.58 q0 0.34 -0.26 0.54 q-0.18 0.16 -0.46 0.16 l-0.14 0 q-2.14 -0.46 -3.62 -2.08 q-1.9 -2.14 -1.9 -5.34 t1.9 -5.34 q1.48 -1.64 3.62 -2.06 q0.32 -0.08 0.6 0.14 z M113.352 5 q0.28 0 0.49 0.21 t0.21 0.49 l0 13.4 q0 0.28 -0.21 0.49 t-0.49 0.21 l-1.52 0 q-0.28 0 -0.49 -0.21 t-0.21 -0.49 l0 -13.4 q0 -0.28 0.21 -0.49 t0.49 -0.21 l1.52 0 z M120.652 16.94 q0.3 0 0.5 0.21 t0.2 0.49 l0 1.46 q0 0.28 -0.2 0.49 t-0.5 0.21 l-4.66 0 q-0.3 0 -0.5 -0.21 t-0.2 -0.49 l0 -1.46 q0 -0.28 0.2 -0.49 t0.5 -0.21 l4.66 0 z M130.208 17.06 q0.24 0.08 0.38 0.27 t0.14 0.43 l0 1.54 q0 0.32 -0.26 0.54 q-0.2 0.16 -0.44 0.16 q-0.1 0 -0.14 -0.02 q-1.86 -0.36 -3.2 -1.72 q-1.8 -1.84 -1.8 -4.84 l0 -7.7 q0 -0.3 0.21 -0.51 t0.49 -0.21 l1.54 0 q0.3 0 0.51 0.21 t0.21 0.51 l0 7.74 q0 1.9 1.08 2.9 q0.56 0.52 1.28 0.7 z M137.108 5 q0.3 0 0.51 0.21 t0.21 0.51 l0 7.7 q0 3 -1.8 4.84 q-1.34 1.36 -3.2 1.72 q-0.04 0.02 -0.14 0.02 q-0.24 0 -0.44 -0.16 q-0.26 -0.2 -0.26 -0.56 l0 -1.54 q0 -0.22 0.14 -0.41 t0.38 -0.27 q0.76 -0.22 1.28 -0.7 q1.08 -0.96 1.08 -2.9 l0 -7.74 q0 -0.3 0.21 -0.51 t0.51 -0.21 l1.52 0 z M153.224 12.18 q1.04 0.64 1.52 1.84 q0.28 0.64 0.28 1.58 q0 1.46 -0.78 2.45 t-2.28 1.47 q-0.94 0.32 -2.22 0.32 l-6.38 0 q-0.28 0 -0.49 -0.21 t-0.21 -0.49 l0 -1.44 q0 -0.3 0.21 -0.51 t0.49 -0.21 l6.54 0 q1.16 0 1.72 -0.42 q0.48 -0.4 0.48 -1.09 t-0.5 -1.13 q-0.62 -0.54 -1.86 -0.54 l-6.38 0 q-0.28 0 -0.49 -0.21 t-0.21 -0.51 l0 -1.38 q0 -0.28 0.21 -0.49 t0.49 -0.21 l6.02 0 q0.86 0 1.34 -0.3 q0.34 -0.2 0.54 -0.58 q0.14 -0.28 0.14 -0.65 t-0.1 -0.67 q-0.08 -0.24 -0.28 -0.44 q-0.44 -0.5 -1.46 -0.5 l-6.2 0 q-0.28 0 -0.49 -0.21 t-0.21 -0.51 l0 -1.44 q0 -0.28 0.21 -0.49 t0.49 -0.21 l6.02 0 q2.48 0 3.82 1.4 q1.14 1.14 1.14 2.86 q0 1.84 -1.12 2.92 z"></path>
    </g>
</svg>